<?xml version="1.0" encoding="utf-8"?>
<!-- Generator: Adobe Illustrator 18.0.0, SVG Export Plug-In . SVG Version: 6.00 Build 0)  -->
<!DOCTYPE svg PUBLIC "-//W3C//DTD SVG 1.1//EN" "http://www.w3.org/Graphics/SVG/1.1/DTD/svg11.dtd">
<svg version="1.1" id="Calque_1" xmlns="http://www.w3.org/2000/svg" xmlns:xlink="http://www.w3.org/1999/xlink" x="0px" y="0px"
	 viewBox="0 0 113.4 42.5" enable-background="new 0 0 113.4 42.5" xml:space="preserve">
<g>
	<g>
		<defs>
			<rect id="SVGID_1_" x="-17.7" y="-26.6" width="153.2" height="114.9"/>
		</defs>
		<clipPath id="SVGID_2_">
			<use xlink:href="#SVGID_1_"  overflow="visible"/>
		</clipPath>
		<path clip-path="url(#SVGID_2_)" fill="#414141" d="M5.8,13.1h1.6l3.4,8H9l-0.7-1.8H4.9l-0.7,1.8H2.4L5.8,13.1z M7.7,17.8
			l-1.1-2.6l-1.1,2.6H7.7z"/>
		<polygon clip-path="url(#SVGID_2_)" fill="#414141" points="12.1,13.1 13.8,13.1 13.8,19.5 17.8,19.5 17.8,21.1 12.1,21.1 		"/>
		<polygon clip-path="url(#SVGID_2_)" fill="#414141" points="19.8,14.7 17.4,14.7 17.4,13.1 24,13.1 24,14.7 21.6,14.7 21.6,21.1 
			19.8,21.1 		"/>
		<g clip-path="url(#SVGID_2_)">
			<defs>
				<rect id="SVGID_3_" x="-17.7" y="-26.6" width="153.2" height="114.9"/>
			</defs>
			<clipPath id="SVGID_4_">
				<use xlink:href="#SVGID_3_"  overflow="visible"/>
			</clipPath>
			<path clip-path="url(#SVGID_4_)" fill="#414141" d="M33.7,13.1h3.6c1,0,1.8,0.3,2.3,0.8c0.4,0.4,0.7,1.1,0.7,1.8v0
				c0,1.3-0.7,2.1-1.7,2.5l1.9,2.8h-2l-1.7-2.5h0h-1.4v2.5h-1.8V13.1z M37.2,17c0.9,0,1.3-0.5,1.3-1.1v0c0-0.8-0.5-1.1-1.4-1.1h-1.7
				V17H37.2z"/>
			<path clip-path="url(#SVGID_4_)" fill="#414141" d="M41.6,19.9l0.6-0.7c0.8,0.8,1.6,1.1,2.7,1.1c1.1,0,1.8-0.6,1.8-1.4v0
				c0-0.7-0.4-1.2-2.1-1.5c-1.8-0.4-2.7-1-2.7-2.3v0c0-1.3,1.1-2.2,2.6-2.2c1.2,0,2,0.3,2.8,1l-0.5,0.7c-0.7-0.6-1.5-0.9-2.3-0.9
				c-1,0-1.7,0.6-1.7,1.3v0c0,0.8,0.4,1.2,2.2,1.5c1.8,0.4,2.6,1,2.6,2.3v0c0,1.4-1.1,2.3-2.7,2.3C43.6,21.2,42.6,20.8,41.6,19.9"/>
			<path clip-path="url(#SVGID_4_)" fill="#414141" d="M49,17.1L49,17.1c0-2.2,1.7-4.1,4.1-4.1c2.4,0,4.1,1.9,4.1,4.1v0
				c0,2.2-1.7,4.1-4.1,4.1C50.7,21.2,49,19.3,49,17.1 M56.2,17.1L56.2,17.1c0-1.8-1.3-3.3-3.1-3.3S50,15.3,50,17.1v0
				c0,1.8,1.3,3.3,3.1,3.3S56.2,18.9,56.2,17.1"/>
			<polygon clip-path="url(#SVGID_4_)" fill="#414141" points="59.1,13.1 60,13.1 60,20.3 64.5,20.3 64.5,21.1 59.1,21.1 			"/>
			<path clip-path="url(#SVGID_4_)" fill="#414141" d="M65.8,17.8v-4.6h0.9v4.6c0,1.7,0.9,2.7,2.4,2.7c1.5,0,2.4-0.9,2.4-2.6v-4.6
				h0.9v4.6c0,2.3-1.3,3.5-3.3,3.5C67.1,21.2,65.8,20,65.8,17.8"/>
			<polygon clip-path="url(#SVGID_4_)" fill="#414141" points="76.6,14 74,14 74,13.1 80.2,13.1 80.2,14 77.5,14 77.5,21.1 
				76.6,21.1 			"/>
			<rect x="82" y="13.1" clip-path="url(#SVGID_4_)" fill="#414141" width="0.9" height="8"/>
			<path clip-path="url(#SVGID_4_)" fill="#414141" d="M84.9,17.1L84.9,17.1c0-2.2,1.7-4.1,4.1-4.1c2.4,0,4.1,1.9,4.1,4.1v0
				c0,2.2-1.7,4.1-4.1,4.1C86.5,21.2,84.9,19.3,84.9,17.1 M92.1,17.1L92.1,17.1c0-1.8-1.3-3.3-3.1-3.3s-3.1,1.5-3.1,3.3v0
				c0,1.8,1.3,3.3,3.1,3.3S92.1,18.9,92.1,17.1"/>
			<polygon clip-path="url(#SVGID_4_)" fill="#414141" points="94.9,13.1 95.7,13.1 100.8,19.5 100.8,13.1 101.6,13.1 101.6,21.1 
				100.9,21.1 95.8,14.6 95.8,21.1 94.9,21.1 			"/>
			<path clip-path="url(#SVGID_4_)" fill="#414141" d="M103.4,19.9l0.6-0.7c0.8,0.8,1.6,1.1,2.7,1.1c1.1,0,1.8-0.6,1.8-1.4v0
				c0-0.7-0.4-1.2-2.1-1.5c-1.8-0.4-2.7-1-2.7-2.3v0c0-1.3,1.1-2.2,2.6-2.2c1.2,0,2,0.3,2.8,1l-0.5,0.7c-0.7-0.6-1.5-0.9-2.3-0.9
				c-1,0-1.7,0.6-1.7,1.3v0c0,0.8,0.4,1.2,2.2,1.5c1.8,0.4,2.6,1,2.6,2.3v0c0,1.4-1.1,2.3-2.7,2.3C105.4,21.2,104.3,20.8,103.4,19.9
				"/>
			<polygon clip-path="url(#SVGID_4_)" fill="#414141" points="33.7,22.8 35.3,22.8 39.1,27.7 39.1,22.8 40.8,22.8 40.8,30.7 
				39.3,30.7 35.4,25.7 35.4,30.7 33.7,30.7 			"/>
			<path clip-path="url(#SVGID_4_)" fill="#414141" d="M42.5,26.8L42.5,26.8c0-2.3,1.8-4.1,4.2-4.1c1.4,0,2.3,0.4,3.1,1.1l-1.1,1.3
				c-0.6-0.5-1.2-0.8-2.1-0.8c-1.3,0-2.3,1.1-2.3,2.5v0c0,1.5,1,2.5,2.4,2.5c0.6,0,1.2-0.2,1.7-0.5v-1.1h-1.8v-1.5h3.5v3.5
				c-0.8,0.7-1.9,1.3-3.4,1.3C44.2,30.9,42.5,29.1,42.5,26.8"/>
			<rect x="52" y="22.8" clip-path="url(#SVGID_4_)" fill="#414141" width="1.8" height="8"/>
			<polygon clip-path="url(#SVGID_4_)" fill="#414141" points="55.9,22.8 57.5,22.8 61.2,27.7 61.2,22.8 62.9,22.8 62.9,30.7 
				61.5,30.7 57.6,25.7 57.6,30.7 55.9,30.7 			"/>
			<polygon clip-path="url(#SVGID_4_)" fill="#414141" points="65,22.8 71,22.8 71,24.3 66.7,24.3 66.7,25.9 70.5,25.9 70.5,27.5 
				66.7,27.5 66.7,29.2 71.1,29.2 71.1,30.7 65,30.7 			"/>
			<polygon clip-path="url(#SVGID_4_)" fill="#414141" points="72.8,22.8 78.8,22.8 78.8,24.3 74.5,24.3 74.5,25.9 78.3,25.9 
				78.3,27.5 74.5,27.5 74.5,29.2 78.8,29.2 78.8,30.7 72.8,30.7 			"/>
			<path clip-path="url(#SVGID_4_)" fill="#414141" d="M80.5,22.8h3.6c1,0,1.8,0.3,2.3,0.8c0.4,0.4,0.7,1.1,0.7,1.8v0
				c0,1.3-0.7,2.1-1.7,2.5l1.9,2.8h-2l-1.7-2.5h0h-1.4v2.5h-1.8V22.8z M84,26.6c0.9,0,1.3-0.5,1.3-1.1v0c0-0.8-0.5-1.1-1.4-1.1h-1.7
				v2.3H84z"/>
			<rect x="89" y="22.8" clip-path="url(#SVGID_4_)" fill="#414141" width="1.8" height="8"/>
			<polygon clip-path="url(#SVGID_4_)" fill="#414141" points="92.8,22.8 94.5,22.8 98.2,27.7 98.2,22.8 99.9,22.8 99.9,30.7 
				98.4,30.7 94.6,25.7 94.6,30.7 92.8,30.7 			"/>
			<path clip-path="url(#SVGID_4_)" fill="#414141" d="M101.6,26.8L101.6,26.8c0-2.3,1.8-4.1,4.2-4.1c1.4,0,2.3,0.4,3.1,1.1
				l-1.1,1.3c-0.6-0.5-1.2-0.8-2.1-0.8c-1.3,0-2.3,1.1-2.3,2.5v0c0,1.5,1,2.5,2.4,2.5c0.6,0,1.2-0.2,1.7-0.5v-1.1h-1.8v-1.5h3.5v3.5
				c-0.8,0.7-1.9,1.3-3.4,1.3C103.3,30.9,101.6,29.1,101.6,26.8"/>
			
				<rect x="25.3" y="13.1" clip-path="url(#SVGID_4_)" fill-rule="evenodd" clip-rule="evenodd" fill="#EB252E" width="7.3" height="1.6"/>
			
				<rect x="25.3" y="16.3" clip-path="url(#SVGID_4_)" fill-rule="evenodd" clip-rule="evenodd" fill="#EC3D2E" width="7.3" height="1.6"/>
			
				<rect x="25.3" y="19.5" clip-path="url(#SVGID_4_)" fill-rule="evenodd" clip-rule="evenodd" fill="#F0682F" width="7.3" height="1.6"/>
			
				<rect x="25.3" y="22.7" clip-path="url(#SVGID_4_)" fill-rule="evenodd" clip-rule="evenodd" fill="#F69837" width="7.3" height="1.6"/>
			
				<rect x="25.3" y="25.9" clip-path="url(#SVGID_4_)" fill-rule="evenodd" clip-rule="evenodd" fill="#FECC67" width="7.3" height="1.6"/>
			
				<rect x="25.3" y="29.1" clip-path="url(#SVGID_4_)" fill-rule="evenodd" clip-rule="evenodd" fill="#FAF29C" width="7.3" height="1.6"/>
		</g>
	</g>
</g>
</svg>
