<?xml version="1.0" encoding="UTF-8" standalone="no"?>
<!-- Created with Inkscape (http://www.inkscape.org/) -->

<svg
   xmlns:dc="http://purl.org/dc/elements/1.1/"
   xmlns:cc="http://creativecommons.org/ns#"
   xmlns:rdf="http://www.w3.org/1999/02/22-rdf-syntax-ns#"
   xmlns:svg="http://www.w3.org/2000/svg"
   xmlns="http://www.w3.org/2000/svg"
   xmlns:sodipodi="http://sodipodi.sourceforge.net/DTD/sodipodi-0.dtd"
   xmlns:inkscape="http://www.inkscape.org/namespaces/inkscape"
   version="1.1"
   id="svg3900"
   xml:space="preserve"
   width="100"
   height="12"
   viewBox="0 0 100 12"
   sodipodi:docname="logos.svg"
   inkscape:version="0.92.1 r15371"><metadata
     id="metadata3906"><rdf:RDF><cc:Work
         rdf:about=""><dc:format>image/svg+xml</dc:format><dc:type
           rdf:resource="http://purl.org/dc/dcmitype/StillImage" /><dc:title></dc:title></cc:Work></rdf:RDF></metadata><defs
     id="defs3904"><clipPath
       clipPathUnits="userSpaceOnUse"
       id="clipPath3918"><path
         d="m 0,3.5 h 750 v 80 H 0 Z"
         id="path3916"
         inkscape:connector-curvature="0" /></clipPath></defs><sodipodi:namedview
     pagecolor="#ffffff"
     bordercolor="#666666"
     borderopacity="1"
     objecttolerance="10"
     gridtolerance="10"
     guidetolerance="10"
     inkscape:pageopacity="0"
     inkscape:pageshadow="2"
     inkscape:window-width="1920"
     inkscape:window-height="1017"
     id="namedview3902"
     showgrid="false"
     inkscape:zoom="10.069201"
     inkscape:cx="51.610337"
     inkscape:cy="26.661278"
     inkscape:window-x="-8"
     inkscape:window-y="-8"
     inkscape:window-maximized="1"
     inkscape:current-layer="layer1" /><g
     id="g3908"
     inkscape:groupmode="layer"
     inkscape:label="AF"
     transform="matrix(1.3333333,0,0,-1.3333333,0,12)"
     style="display:inline"><g
       id="g3910"
       transform="scale(0.1)"><g
         id="g3912"><g
           id="g3914"
           clip-path="url(#clipPath3918)"><path
             d="m 31.4805,83.5 h 15 L 78.0117,9.98047 H 61.4805 L 54.7695,26.5117 H 23.2383 L 16.4805,9.98047 H 0 Z M 48.75,40.7695 38.9805,64.75 29.2617,40.7695 Z"
             style="fill:#414141;fill-opacity:1;fill-rule:nonzero;stroke:none"
             id="path3920"
             inkscape:connector-curvature="0" /><path
             d="M 89.2617,82.7617 H 105 V 24.2383 h 36.762 V 9.98047 H 89.2617 Z"
             style="fill:#414141;fill-opacity:1;fill-rule:nonzero;stroke:none"
             id="path3922"
             inkscape:connector-curvature="0" /><path
             d="m 160.512,68.5 h -22.5 V 82.7617 H 198.75 V 68.5 h -22.5 V 9.98047 h -15.738 z"
             style="fill:#414141;fill-opacity:1;fill-rule:nonzero;stroke:none"
             id="path3924"
             inkscape:connector-curvature="0" /><path
             d="m 288.012,82.7617 h 33.75 c 8.976,0 16.476,-2.2734 20.968,-7.5 3.75,-3.75 6.02,-9.7734 6.02,-16.5312 0,-11.9922 -6.02,-19.4922 -15.738,-22.5 L 351.02,9.98047 H 332.27 L 316.48,33.2695 H 303.75 V 9.98047 H 288.012 Z M 320.23,47.4805 c 7.5,0 12.04,4.539 12.04,10.5078 0,6.7617 -4.54,10.5117 -12.782,10.5117 H 303.75 V 47.4805 Z"
             style="fill:#414141;fill-opacity:1;fill-rule:nonzero;stroke:none"
             id="path3926"
             inkscape:connector-curvature="0" /><path
             d="m 364.488,82.7617 h 52.5 v -7.5 H 372.73 v -26.25 h 39.77 v -7.5 H 372.73 V 9.98047 h -8.242 z"
             style="fill:#414141;fill-opacity:1;fill-rule:nonzero;stroke:none"
             id="path3928"
             inkscape:connector-curvature="0" /><path
             d="m 435,82.7617 h 31.48 c 9.032,0 16.532,-3.0117 21.02,-7.5 3.75,-3.75 6.02,-9.0312 6.02,-14.2617 0,-11.9883 -8.29,-19.4883 -19.54,-21.0195 L 496.48,9.98047 H 486.02 L 465,38.5 H 443.98 V 9.98047 h -8.242 V 82.7617 Z M 465.738,46 c 11.25,0 18.75,6.0195 18.75,15 0,8.9805 -6.758,14.2617 -18.75,14.2617 H 443.98 V 46 c 7.348,0 14.461,0 21.758,0 z"
             style="fill:#414141;fill-opacity:1;fill-rule:nonzero;stroke:none"
             id="path3930"
             inkscape:connector-curvature="0" /><path
             d="m 540,83.5 h 7.5 L 580.512,9.98047 H 571.48 L 563.238,29.5195 H 523.52 L 514.488,9.98047 h -8.238 z m 20.23,-46.4805 -16.48,37.5 -16.48,-37.5 z"
             style="fill:#414141;fill-opacity:1;fill-rule:nonzero;stroke:none"
             id="path3932"
             inkscape:connector-curvature="0" /><path
             d="m 596.988,82.7617 h 8.242 l 27.04,-39.7734 26.25,39.7734 h 8.242 V 9.98047 H 658.52 V 69.2383 L 632.27,30.2617 h -0.79 L 605.23,69.2383 V 9.98047 h -8.242 z"
             style="fill:#414141;fill-opacity:1;fill-rule:nonzero;stroke:none"
             id="path3934"
             inkscape:connector-curvature="0" /><path
             d="M 689.262,82.7617 H 742.5 v -7.5 h -45 V 50.4883 h 40.512 v -7.5 H 697.5 V 17.4805 h 45.738 V 9.98047 h -53.976 z"
             style="fill:#414141;fill-opacity:1;fill-rule:nonzero;stroke:none"
             id="path3936"
             inkscape:connector-curvature="0" /><path
             d="m 210,67.7617 h 66.7617 v 15 H 210 Z"
             style="fill:#02954b;fill-opacity:1;fill-rule:evenodd;stroke:none"
             id="path3938"
             inkscape:connector-curvature="0" /><path
             d="m 210,39.2383 h 66.7617 v 15 H 210 Z"
             style="fill:#02954b;fill-opacity:1;fill-rule:evenodd;stroke:none"
             id="path3940"
             inkscape:connector-curvature="0" /><path
             d="m 210,9.98047 h 66.7617 v 15 H 210 Z"
             style="fill:#02954b;fill-opacity:1;fill-rule:evenodd;stroke:none"
             id="path3942"
             inkscape:connector-curvature="0" /></g></g></g></g><g
     inkscape:groupmode="layer"
     id="layer1"
     inkscape:label="AMU"
     style="display:inline"><g
       transform="matrix(0.26666666,0,0,-0.26666666,-0.00573421,-1.2999445)"
       inkscape:label="ink_ext_XXXXXX"
       id="g3953"><g
         transform="scale(0.1)"
         id="g3955"><path
           inkscape:connector-curvature="0"
           id="path3957"
           style="fill:#fab20b;fill-opacity:1;fill-rule:nonzero;stroke:none"
           d="m 260.293,95.6914 c -62.965,37.9966 22.125,286.8636 134.137,501.7346 60.867,116.75 127.504,220.957 187.625,293.418 44.414,53.535 104.785,112.846 140.425,91.379 l -8.863,-16.993 c -14.945,9.012 -54.015,-9.121 -118.73,-87.109 C 535.641,806.715 469.848,703.766 409.629,588.258 278.672,337.055 230.488,136 269.148,112.672 l -8.855,-16.9806 v 0" /><path
           inkscape:connector-curvature="0"
           id="path3959"
           style="fill:#1476c6;fill-opacity:1;fill-rule:nonzero;stroke:none"
           d="m 955.09,703.734 c 2.117,-3.191 3.598,-6.687 4.387,-10.468 l -18.364,-5.301 C 931.875,731.508 732.402,725.18 460.742,646.656 189.039,568.148 9.89453,465.004 19.0391,421.527 L 0.664063,416.215 C -14.2266,487.016 224.742,596.598 457.145,663.754 c 219.98,63.574 460.273,96.691 497.945,39.98 v 0" /><path
           inkscape:connector-curvature="0"
           id="path3961"
           style="fill:#4dc6f4;fill-opacity:1;fill-rule:nonzero;stroke:none"
           d="m 120.84,881.43 c 1.672,3.625 3.93,6.847 6.789,9.64 l 14.047,-13.086 C 108.715,845.785 216.781,675.309 424.488,481.859 632.211,288.383 813.676,189.301 846.633,221.383 L 860.68,208.285 C 807.016,156.051 589.219,303.766 411.543,469.254 243.344,625.895 91.0898,817.145 120.84,881.43 v 0" /><path
           inkscape:connector-curvature="0"
           id="path3963"
           style="fill:#1476c6;fill-opacity:1;fill-rule:nonzero;stroke:none"
           d="m 1109.03,565.648 c 0,59.278 5.09,114.778 15.35,166.446 10.2,51.652 25.67,102.519 46.52,152.597 20.8,50.071 46.57,100.247 77.2,150.569 18.46,30.63 34.82,51.99 46.54,66.26 12.11,14.75 24.98,30.36 42.65,30.36 19.23,0 28.85,-5.31 28.85,-15.92 0,-3.54 -9.04,-24.84 -27.09,-63.94 -18.09,-39.07 -35.06,-80.012 -50.96,-122.836 -15.95,-42.852 -30.68,-96.239 -44.16,-160.282 -13.61,-64.004 -20.36,-131.769 -20.36,-203.254 0,-70.703 6.67,-137.714 20.02,-200.957 13.35,-63.222 32.27,-118.027 49.35,-164.382 17.11,-46.36 30.47,-87.918 47.57,-124.6176 17.09,-36.7305 25.63,-56.6601 25.63,-59.8125 C 1366.14,5.28125 1356.52,0 1337.29,0 c -18.08,0 -30.47,18.0508 -42.65,31.7617 -12.18,13.7774 -27.7,35.7578 -46.54,66.0391 -31.02,51.8442 -56.68,101.8242 -76.91,149.9292 -20.24,48.133 -35.62,98.133 -46.23,150 -10.62,51.797 -15.93,107.793 -15.93,167.918" /><path
           inkscape:connector-curvature="0"
           id="path3965"
           style="fill:#231f20;fill-opacity:1;fill-rule:nonzero;stroke:none"
           d="m 1620.73,130.711 h -19.26 l -12.2,35.426 h -62.69 l -11.95,-35.426 h -19.29 l 49.85,147.496 h 25.67 z m -62.67,133.785 -26.39,-81.726 h 52.76 l -26.37,81.726" /><path
           inkscape:connector-curvature="0"
           id="path3967"
           style="fill:#231f20;fill-opacity:1;fill-rule:nonzero;stroke:none"
           d="m 1644.63,282.672 h 18.62 v -26.828 h -18.62 z m 0,-44.082 h 18.62 V 130.699 h -18.62 V 238.59" /><path
           inkscape:connector-curvature="0"
           id="path3969"
           style="fill:#231f20;fill-opacity:1;fill-rule:nonzero;stroke:none"
           d="m 1684.99,130.699 35.39,54.285 -34.76,53.606 h 19.27 l 25.68,-39.649 25.73,39.649 h 19.25 l -34.99,-53.606 35.66,-54.285 h -19.47 l -26.18,40.098 -25.89,-40.098 h -19.69" /><path
           inkscape:connector-curvature="0"
           id="path3971"
           style="fill:#fab20b;fill-opacity:1;fill-rule:nonzero;stroke:none"
           d="m 1839.42,261.176 c 0,0 -4.88,-2.039 -4.88,-4.246 V 135.746 c 0,-2.156 4.97,-4.258 4.97,-4.258 0,0 4.88,2.051 4.88,4.258 V 256.93 c 0,2.156 -4.97,4.246 -4.97,4.246" /><path
           inkscape:connector-curvature="0"
           id="path3973"
           style="fill:#fab20b;fill-opacity:1;fill-rule:nonzero;stroke:none"
           d="m 1838.84,129.91 c -0.09,0 -1.36,0.512 -2.76,1.41 -1.31,0.969 -3.11,1.985 -3.27,4.426 v 121.172 c 0.16,2.441 1.96,3.469 3.21,4.434 1.4,0.898 2.68,1.425 2.73,1.425 l 0.67,0.293 0.7,-0.293 c 0.04,0 1.34,-0.527 2.7,-1.425 1.34,-0.965 3.11,-1.993 3.28,-4.434 V 135.746 c -0.17,-2.441 -1.94,-3.457 -3.25,-4.426 -1.35,-0.898 -2.64,-1.41 -2.69,-1.41 l -0.65,-0.32 z m -2.53,5.797 c 0.04,-0.039 0.13,-0.176 0.32,-0.359 0.3,-0.352 0.79,-0.743 1.31,-1.047 0.58,-0.371 1.13,-0.664 1.57,-0.899 0.29,0.188 0.65,0.352 1.04,0.625 0.99,0.528 1.92,1.379 2.05,1.68 l 0.05,0.039 v 121.125 c -0.05,0 -0.05,0.047 -0.05,0.047 -0.04,0.098 -0.13,0.227 -0.28,0.402 -0.28,0.36 -0.82,0.743 -1.36,1.063 -0.58,0.351 -1.1,0.664 -1.5,0.879 -0.33,-0.176 -0.71,-0.352 -1.12,-0.625 -0.92,-0.516 -1.9,-1.367 -2.03,-1.66 -0.04,-0.059 0,-0.059 0,-0.059 z m 2.44,123.879 0.67,1.59 -0.67,-1.59" /><path
           inkscape:connector-curvature="0"
           id="path3975"
           style="fill:#fab20b;fill-opacity:1;fill-rule:nonzero;stroke:none"
           d="m 1795.2,208.09 c 0,0 -0.63,-5.293 1.27,-6.387 l 29.19,-16.855 c 11.8,-6.785 22.65,-13.075 22.65,-13.075 l 29.23,-16.855 c 1.92,-1.125 6.17,2.117 6.17,2.117 0,0 0.68,5.293 -1.25,6.399 l -29.21,16.843 c 0,0 -10.87,6.25 -22.66,13.086 l -29.24,16.856 c -1.86,1.113 -6.15,-2.129 -6.15,-2.129" /><path
           inkscape:connector-curvature="0"
           id="path3977"
           style="fill:#fab20b;fill-opacity:1;fill-rule:nonzero;stroke:none"
           d="m 1876.67,153.402 -29.18,16.856 c 0,0 -10.92,6.289 -22.67,13.078 l -29.22,16.855 c -1.25,0.75 -1.63,1.942 -1.95,2.977 -0.23,0.996 -0.29,2.031 -0.29,2.93 0,1.242 0.12,2.168 0.12,2.207 l 0.08,0.703 0.61,0.449 c 0.18,0.039 3.06,2.578 6.27,2.754 0.58,0 1.19,-0.137 1.82,-0.488 l 29.21,-16.864 c 11.8,-6.769 22.66,-13.078 22.63,-13.078 l 29.2,-16.855 c 1.25,-0.762 1.71,-1.953 1.97,-2.918 0.22,-1.067 0.31,-2.102 0.31,-2.961 0,-1.238 -0.13,-2.188 -0.13,-2.227 l -0.09,-0.711 -0.58,-0.449 c -0.18,-0.051 -3.05,-2.57 -6.29,-2.707 -0.54,0 -1.19,0.09 -1.82,0.449 m 1.82,3.008 c 0.42,-0.039 1.64,0.41 2.53,0.977 0.39,0.234 0.75,0.449 1,0.625 0.03,0.254 0.03,0.625 0.03,1.035 0.06,1.191 -0.28,2.695 -0.45,2.871 h -0.04 l -29.21,16.855 c 0,0 -10.85,6.262 -22.65,13.086 l -29.17,16.848 h -0.09 c -0.41,0.047 -1.66,-0.402 -2.53,-0.977 -0.41,-0.214 -0.77,-0.441 -1.03,-0.625 0,-0.265 -0.04,-0.625 -0.04,-1.007 -0.05,-1.2 0.3,-2.735 0.49,-2.891 v 0.039 l 29.23,-16.894 c 11.78,-6.778 22.6,-13.047 22.65,-13.067 l 29.18,-16.875 h 0.1" /><path
           inkscape:connector-curvature="0"
           id="path3979"
           style="fill:#fab20b;fill-opacity:1;fill-rule:nonzero;stroke:none"
           d="m 1883.72,208.09 c 0,0 0.67,-5.293 -1.23,-6.387 l -29.24,-16.855 c -11.79,-6.785 -22.66,-13.075 -22.66,-13.075 l -29.24,-16.855 c -1.86,-1.125 -6.15,2.117 -6.15,2.117 0,0 -0.62,5.293 1.28,6.399 l 29.19,16.843 c 0,0 10.86,6.25 22.66,13.086 l 29.23,16.856 c 1.9,1.113 6.16,-2.129 6.16,-2.129" /><path
           inkscape:connector-curvature="0"
           id="path3981"
           style="fill:#fab20b;fill-opacity:1;fill-rule:nonzero;stroke:none"
           d="m 1800.44,152.973 c -3.21,0.129 -6.09,2.656 -6.27,2.695 l -0.61,0.449 -0.08,0.703 c 0,0.039 -0.12,0.977 -0.12,2.207 0,0.899 0.06,1.914 0.29,2.981 0.27,0.984 0.7,2.176 1.95,2.937 l 29.22,16.836 c 0,0 10.85,6.309 22.65,13.086 l 29.2,16.856 c 0.62,0.351 1.24,0.488 1.82,0.488 3.24,-0.164 6.11,-2.715 6.29,-2.734 l -1.06,-1.387 1.06,1.387 0.58,-0.45 0.09,-0.722 c 0,-0.039 0.13,-0.977 0.13,-2.215 0,-0.891 -0.09,-1.906 -0.31,-2.949 -0.26,-0.989 -0.72,-2.149 -1.94,-2.942 l -29.2,-16.855 c -11.81,-6.778 -22.66,-13.086 -22.66,-13.086 l -29.21,-16.856 c -0.63,-0.351 -1.25,-0.429 -1.78,-0.429 z m -2.53,4.433 c 0.92,-0.586 2.12,-1.015 2.53,-0.976 h 0.09 l 29.17,16.836 c 0.05,0.039 10.85,6.328 22.65,13.086 l 29.21,16.855 c 0.04,0 0.04,0.051 0.08,0.137 0.04,0.078 0.18,0.351 0.21,0.625 0.17,0.625 0.23,1.406 0.23,2.121 0,0.398 0,0.769 -0.06,1.023 -0.25,0.176 -0.61,0.41 -1,0.617 -0.92,0.575 -2.11,1.024 -2.53,0.985 h -0.1 l -29.18,-16.863 c -11.79,-6.829 -22.62,-13.079 -22.65,-13.079 l -29.19,-16.855 c 0,0 -0.04,-0.039 -0.08,-0.086 -0.06,-0.129 -0.15,-0.363 -0.24,-0.676 -0.13,-0.566 -0.21,-1.406 -0.21,-2.129 0,-0.371 0.04,-0.742 0.04,-0.996 0.26,-0.195 0.62,-0.41 1.03,-0.625" /><path
           inkscape:connector-curvature="0"
           id="path3983"
           style="fill:#231f20;fill-opacity:1;fill-rule:nonzero;stroke:none"
           d="m 1930.59,250.316 -2.83,-119.605 h -18.42 l 5.11,147.496 h 24.12 l 42.54,-114.062 42.54,114.062 h 24.1 l 5.12,-147.496 h -18.38 l -2.88,119.605 -37.63,-100.554 h -25.68 l -37.71,100.554" /><path
           inkscape:connector-curvature="0"
           id="path3985"
           style="fill:#231f20;fill-opacity:1;fill-rule:nonzero;stroke:none"
           d="m 2154.17,130.699 h -15.71 l -1.1,7.989 c -9.53,-6.672 -21.94,-10.219 -34.99,-10.219 -20.18,0 -28.58,11.984 -28.58,31.047 0,22.363 11.29,30.332 33,30.332 h 28.8 v 16.867 c 0,13.465 -6.01,18.152 -23.47,18.152 -10.43,0 -20.53,-1.082 -28.93,-2.812 l -1.99,14.804 c 10.16,2.676 20.49,3.965 32.02,3.965 30.77,0 40.95,-11.98 40.95,-35.039 z m -18.58,43.621 h -27.46 c -11.53,0 -15.74,-3.523 -15.74,-14.355 0,-11.094 1.99,-15.527 15.3,-15.527 9.31,0 19.67,3.554 27.9,8.886 v 20.996" /><path
           inkscape:connector-curvature="0"
           id="path3987"
           style="fill:#231f20;fill-opacity:1;fill-rule:nonzero;stroke:none"
           d="m 2232.56,223.734 c -10.17,-4.882 -21.95,-12.421 -30.81,-18.613 v -74.422 h -18.58 V 238.59 h 16.2 l 1.06,-15.07 c 7.96,6.21 19.05,12.851 29.69,17.296 l 2.44,-17.082" /><path
           inkscape:connector-curvature="0"
           id="path3989"
           style="fill:#231f20;fill-opacity:1;fill-rule:nonzero;stroke:none"
           d="m 2281.27,128.48 c -11.04,0 -25.7,2.442 -34.33,5.762 l 2.44,14.629 c 9.3,-2.656 21.52,-4.433 30.83,-4.433 17,0 19.91,3.105 19.91,14.648 0,11.484 -0.9,12.812 -22.62,18.125 -26.81,6.66 -29.25,12.207 -29.25,34.551 0,19.961 8.9,29.062 37.22,29.062 10.43,0 21.75,-1.328 30.61,-3.769 l -1.32,-15.301 c -9.09,1.766 -21.06,3.113 -29.96,3.113 -15.91,0 -18.13,-3.789 -18.13,-13.554 0,-11.922 0.23,-14.141 18.37,-18.575 31.04,-7.754 33.44,-11.523 33.44,-32.996 0,-21.054 -6.4,-31.262 -37.21,-31.262" /><path
           inkscape:connector-curvature="0"
           id="path3991"
           style="fill:#231f20;fill-opacity:1;fill-rule:nonzero;stroke:none"
           d="m 2384.87,144.457 c 10.6,0 22.34,1.992 34.1,5.098 l 2.44,-14.864 c -10.2,-3.769 -24.61,-6.211 -38.1,-6.211 -31.94,0 -42.74,15.293 -42.74,39.649 v 32.383 c 0,22.343 10.16,40.304 42.31,40.304 31.89,0 40.52,-18.41 40.52,-40.753 v -22.618 h -64.27 v -9.101 c 0,-17.012 4.66,-23.887 25.74,-23.887 m -25.74,48.516 h 46.32 v 8.859 c 0,15.027 -5.11,23.465 -22.57,23.465 -17.52,0 -23.75,-8.438 -23.75,-23.465 v -8.859" /><path
           inkscape:connector-curvature="0"
           id="path3993"
           style="fill:#231f20;fill-opacity:1;fill-rule:nonzero;stroke:none"
           d="m 2447.76,282.672 h 18.63 v -26.828 h -18.63 z m 0,-44.082 h 18.63 V 130.699 h -18.63 V 238.59" /><path
           inkscape:connector-curvature="0"
           id="path3995"
           style="fill:#231f20;fill-opacity:1;fill-rule:nonzero;stroke:none"
           d="m 2501.82,130.699 v 151.973 l 18.58,2.617 v -154.59 h -18.58" /><path
           inkscape:connector-curvature="0"
           id="path3997"
           style="fill:#231f20;fill-opacity:1;fill-rule:nonzero;stroke:none"
           d="m 2555.87,130.699 v 151.973 l 18.59,2.617 v -154.59 h -18.59" /><path
           inkscape:connector-curvature="0"
           id="path3999"
           style="fill:#231f20;fill-opacity:1;fill-rule:nonzero;stroke:none"
           d="m 2641.29,144.457 c 10.59,0 22.35,1.992 34.11,5.098 l 2.44,-14.864 c -10.2,-3.769 -24.61,-6.211 -38.09,-6.211 -31.95,0 -42.77,15.293 -42.77,39.649 v 32.383 c 0,22.343 10.17,40.304 42.3,40.304 31.92,0 40.56,-18.41 40.56,-40.753 v -22.618 h -64.27 v -9.101 c 0,-17.012 4.65,-23.887 25.72,-23.887 m -25.72,48.516 h 46.31 v 8.859 c 0,15.027 -5.12,23.465 -22.6,23.465 -17.49,0 -23.71,-8.438 -23.71,-23.465 v -8.859" /><path
           inkscape:connector-curvature="0"
           id="path4001"
           style="fill:#231f20;fill-opacity:1;fill-rule:nonzero;stroke:none"
           d="M 2857.68,274.391 V 171.625 c 0,-23.359 -13.48,-42.266 -50.6,-42.266 -37.11,0 -50.65,18.907 -50.65,42.266 v 102.766 h 18.46 V 172.699 c 0,-17.558 9.67,-26.797 32.19,-26.797 22.53,0 32.16,9.239 32.16,26.797 v 101.692 h 18.44" /><path
           inkscape:connector-curvature="0"
           id="path4003"
           style="fill:#231f20;fill-opacity:1;fill-rule:nonzero;stroke:none"
           d="m 2957.76,131.488 v 79.825 c 0,6.894 -3.46,9.667 -10.1,9.667 -7.71,0 -23.81,-4.726 -34.96,-10.507 v -78.985 h -18.05 v 104.504 h 14.61 l 1.72,-9.015 c 11.56,5.586 29.61,11.171 42.05,11.171 16.76,0 22.76,-10.496 22.76,-26.601 v -80.059 h -18.03" /><path
           inkscape:connector-curvature="0"
           id="path4005"
           style="fill:#231f20;fill-opacity:1;fill-rule:nonzero;stroke:none"
           d="m 3009.05,278.695 h 17.99 v -25.957 h -17.99 z m 0,-42.715 h 17.99 v -104.5 h -17.99 v 104.5" /><path
           inkscape:connector-curvature="0"
           id="path4007"
           style="fill:#231f20;fill-opacity:1;fill-rule:nonzero;stroke:none"
           d="m 3121.25,235.992 h 17.78 l -34.55,-104.504 h -24.01 l -34.55,104.504 h 17.82 l 28.71,-89.699 28.8,89.699" /><path
           inkscape:connector-curvature="0"
           id="path4009"
           style="fill:#231f20;fill-opacity:1;fill-rule:nonzero;stroke:none"
           d="m 3195.49,144.809 c 10.3,0 21.64,1.945 33.05,4.961 l 2.34,-14.422 c -9.9,-3.629 -23.82,-5.969 -36.89,-5.969 -30.92,0 -41.43,14.816 -41.43,38.41 v 31.297 c 0,21.68 9.89,39.062 40.98,39.062 30.92,0 39.24,-17.82 39.24,-39.453 v -21.914 h -62.21 v -8.789 c 0,-16.543 4.53,-23.183 24.92,-23.183 m -24.92,46.992 h 44.88 v 8.566 c 0,14.598 -4.96,22.742 -21.91,22.742 -16.93,0 -22.97,-8.144 -22.97,-22.742 v -8.566" /><path
           inkscape:connector-curvature="0"
           id="path4011"
           style="fill:#231f20;fill-opacity:1;fill-rule:nonzero;stroke:none"
           d="m 3308.99,221.625 c -9.9,-4.707 -21.27,-12.031 -29.86,-18.027 v -72.11 h -18.01 v 104.504 h 15.66 l 1.08,-14.601 c 7.71,6.027 18.43,12.461 28.77,16.757 l 2.36,-16.523" /><path
           inkscape:connector-curvature="0"
           id="path4013"
           style="fill:#231f20;fill-opacity:1;fill-rule:nonzero;stroke:none"
           d="m 3356.18,129.379 c -10.75,0 -24.89,2.332 -33.28,5.566 l 2.36,14.16 c 9.02,-2.578 20.82,-4.316 29.84,-4.316 16.49,0 19.3,3.027 19.3,14.199 0,11.125 -0.84,12.422 -21.86,17.578 -25.99,6.426 -28.34,11.797 -28.34,33.477 0,19.297 8.6,28.105 36.02,28.105 10.1,0 21.05,-1.289 29.67,-3.671 l -1.35,-14.774 c -8.77,1.688 -20.35,2.977 -28.95,2.977 -15.46,0 -17.57,-3.653 -17.57,-13.086 0,-11.582 0.23,-13.711 17.81,-18.008 30.06,-7.5 32.4,-11.172 32.4,-31.973 0,-20.359 -6.25,-30.234 -36.05,-30.234" /><path
           inkscape:connector-curvature="0"
           id="path4015"
           style="fill:#231f20;fill-opacity:1;fill-rule:nonzero;stroke:none"
           d="m 3421.41,278.695 h 18.01 v -25.957 h -18.01 z m 0,-42.715 h 18.01 v -104.5 h -18.01 v 104.5" /><path
           inkscape:connector-curvature="0"
           id="path4017"
           style="fill:#231f20;fill-opacity:1;fill-rule:nonzero;stroke:none"
           d="m 3528.25,133.227 c -6.49,-2.368 -14.2,-3.848 -21.92,-3.848 -17.56,0 -25.93,6.418 -25.93,23.809 V 221 h -18.46 v 14.992 h 18.46 v 25.75 l 18,2.598 v -28.348 h 29.61 L 3526.51,221 h -28.11 v -64.805 c 0,-7.715 1.06,-11.621 10.73,-11.621 4.92,0 10.13,0.899 16.75,2.629 l 2.37,-13.976" /><path
           inkscape:connector-curvature="0"
           id="path4019"
           style="fill:#231f20;fill-opacity:1;fill-rule:nonzero;stroke:none"
           d="m 3590.45,144.809 c 10.3,0 21.66,1.945 33.05,4.953 l 2.34,-14.407 c -9.88,-3.636 -23.82,-5.996 -36.89,-5.996 -30.92,0 -41.41,14.825 -41.41,38.418 v 31.309 c 0,21.691 9.89,39.082 40.98,39.082 30.92,0 39.24,-17.84 39.24,-39.473 v -21.914 h -62.23 v -8.789 c 0,-16.531 4.53,-23.183 24.92,-23.183 m -24.92,46.992 h 44.85 v 8.574 c 0,14.59 -4.93,22.734 -21.86,22.734 -16.95,0 -22.99,-8.144 -22.99,-22.734 z m 9.46,68.008 c 10.72,6.242 21.91,13.281 29.39,19.531 l 7.73,-11.992 c -9.86,-7.325 -18.82,-12.91 -29.82,-18.672 l -7.3,11.133" /><path
           inkscape:connector-curvature="0"
           id="path4021"
           style="fill:#4dc6f4;fill-opacity:1;fill-rule:nonzero;stroke:none"
           d="m 1522.51,729.156 v 208.125 h 123.75 v -24.062 h -96.88 v -69.375 h 90.32 v -24.063 h -90.32 v -90.625 h -26.87" /><path
           inkscape:connector-curvature="0"
           id="path4023"
           style="fill:#4dc6f4;fill-opacity:1;fill-rule:nonzero;stroke:none"
           d="m 1768.41,790.719 h -38.75 c -16.25,0 -22.18,-5 -22.18,-20.313 0,-15.625 2.81,-21.875 21.56,-21.875 13.12,0 27.81,5 39.37,12.5 z m 26.25,-61.563 h -22.18 l -1.57,11.25 c -13.43,-9.375 -30.93,-14.375 -49.37,-14.375 -28.44,0 -40.31,16.875 -40.31,43.75 0,31.563 15.93,42.813 46.56,42.813 h 40.62 v 23.75 c 0,19.062 -8.43,25.625 -33.12,25.625 -14.69,0 -33.75,-2.5 -45.63,-5 l -2.81,20.937 c 14.38,3.75 33.75,6.563 50,6.563 43.44,0 57.81,-16.875 57.81,-49.375 V 729.156" /><path
           inkscape:connector-curvature="0"
           id="path4025"
           style="fill:#4dc6f4;fill-opacity:1;fill-rule:nonzero;stroke:none"
           d="m 1834.63,781.344 v 47.812 c 0,35 13.12,55.313 60.62,55.313 13.44,0 28.44,-2.188 36.25,-4.688 l -2.18,-21.875 c -11.88,2.5 -22.82,3.438 -33.44,3.438 -26.25,0 -35,-7.5 -35,-31.25 v -49.688 c 0,-23.75 8.75,-31.25 35,-31.25 10.62,0 21.56,0.938 33.44,3.438 l 2.5,-21.875 c -7.82,-2.5 -23.13,-4.688 -36.57,-4.688 -48.75,0 -60.62,20.313 -60.62,55.313" /><path
           inkscape:connector-curvature="0"
           id="path4027"
           style="fill:#4dc6f4;fill-opacity:1;fill-rule:nonzero;stroke:none"
           d="m 1999.6,881.344 v -116.25 c 0,-10 5,-14.063 14.69,-14.063 11.25,0 34.69,6.875 50.94,15.313 v 115 h 26.25 V 729.156 h -21.25 l -2.5,13.125 c -16.88,-8.125 -43.13,-16.25 -61.25,-16.25 -24.38,0 -33.13,15.313 -33.13,38.75 v 116.563 h 26.25" /><path
           inkscape:connector-curvature="0"
           id="path4029"
           style="fill:#4dc6f4;fill-opacity:1;fill-rule:nonzero;stroke:none"
           d="m 2144.57,729.156 v 214.375 l 26.25,3.75 V 729.156 h -26.25" /><path
           inkscape:connector-curvature="0"
           id="path4031"
           style="fill:#4dc6f4;fill-opacity:1;fill-rule:nonzero;stroke:none"
           d="m 2303.29,731.656 c -9.38,-3.437 -20.63,-5.625 -31.88,-5.625 -25.62,0 -37.81,9.375 -37.81,34.688 v 98.75 h -26.88 v 21.875 h 26.88 v 37.5 l 26.25,3.75 v -41.25 h 43.12 l -2.18,-21.875 h -40.94 v -94.375 c 0,-11.25 1.56,-16.875 15.62,-16.875 7.19,0 14.69,1.25 24.38,3.75 l 3.44,-20.313" /><path
           inkscape:connector-curvature="0"
           id="path4033"
           style="fill:#4dc6f4;fill-opacity:1;fill-rule:nonzero;stroke:none"
           d="m 2374.52,916.031 c 15.62,9.063 31.87,19.375 42.81,28.438 l 11.25,-17.5 c -14.38,-10.625 -27.5,-18.75 -43.44,-27.188 z m -13.75,-99.062 h 65.31 v 12.5 c 0,21.25 -7.19,33.125 -31.88,33.125 -24.68,0 -33.43,-11.875 -33.43,-33.125 z m 36.25,-68.438 c 15,0 31.56,2.813 48.12,7.188 l 3.44,-20.938 c -14.38,-5.312 -34.69,-8.75 -53.75,-8.75 -45,0 -60.31,21.563 -60.31,55.938 v 45.625 c 0,31.562 14.37,56.875 59.68,56.875 45,0 57.19,-25.938 57.19,-57.5 v -31.875 h -90.62 v -12.813 c 0,-24.062 6.56,-33.75 36.25,-33.75" /><path
           inkscape:connector-curvature="0"
           id="path4035"
           style="fill:#4dc6f4;fill-opacity:1;fill-rule:nonzero;stroke:none"
           d="m 1608.13,559.098 c -14.06,2.812 -31.25,4.687 -41.87,4.687 -17.5,0 -24.69,-8.125 -24.69,-26.562 v -62.188 c 0,-15.625 5,-23.437 23.44,-23.437 15,0 31.87,8.125 43.12,18.125 z m -92.81,-21.875 c 0,30.312 13.75,49.687 49.38,49.687 13.43,0 31.25,-2.187 43.43,-4.687 v 63.75 l 26.25,3.75 V 431.598 h -22.18 l -2.19,13.75 c -12.5,-10 -30.31,-16.875 -50.31,-16.875 -30,0 -44.38,15.937 -44.38,46.562 v 62.188" /><path
           inkscape:connector-curvature="0"
           id="path4037"
           style="fill:#4dc6f4;fill-opacity:1;fill-rule:nonzero;stroke:none"
           d="m 1705.91,519.41 h 65.32 v 12.5 c 0,21.25 -7.19,33.125 -31.88,33.125 -24.69,0 -33.44,-11.875 -33.44,-33.125 z m 36.25,-68.437 c 15,0 31.57,2.812 48.13,7.187 l 3.44,-20.937 c -14.38,-5.313 -34.69,-8.75 -53.75,-8.75 -45,0 -60.32,21.562 -60.32,55.937 v 45.625 c 0,31.563 14.38,56.875 59.69,56.875 45,0 57.19,-25.937 57.19,-57.5 v -31.875 h -90.63 v -12.812 c 0,-24.063 6.57,-33.75 36.25,-33.75" /><path
           inkscape:connector-curvature="0"
           id="path4039"
           style="fill:#4dc6f4;fill-opacity:1;fill-rule:nonzero;stroke:none"
           d="m 1883.07,428.473 c -15.63,0 -36.25,3.437 -48.44,8.125 l 3.44,20.625 c 13.12,-3.75 30.31,-6.25 43.43,-6.25 24.07,0 28.13,4.375 28.13,20.625 0,16.25 -1.25,18.125 -31.88,25.625 -37.81,9.375 -41.25,17.187 -41.25,48.75 0,28.125 12.5,40.937 52.5,40.937 14.69,0 30.63,-1.875 43.13,-5.312 l -1.88,-21.563 c -12.81,2.5 -29.68,4.375 -42.18,4.375 -22.5,0 -25.63,-5.312 -25.63,-19.062 0,-16.875 0.31,-20 25.94,-26.25 43.75,-10.938 47.19,-16.25 47.19,-46.563 0,-29.687 -9.07,-44.062 -52.5,-44.062" /><path
           inkscape:connector-curvature="0"
           id="path4041"
           style="fill:#4dc6f4;fill-opacity:1;fill-rule:nonzero;stroke:none"
           d="m 2107.08,428.473 c -20,0 -44.06,3.75 -61.87,10.937 l 4.37,21.875 c 19.06,-5.937 39.06,-9.062 58.13,-9.062 33.44,0 40.31,8.75 40.31,32.5 0,28.125 -0.31,30.625 -43.13,40.312 -50.31,11.25 -56.25,20.938 -56.25,64.063 0,36.25 15,53.75 66.57,53.75 18.12,0 39.69,-2.5 56.25,-6.875 l -2.19,-22.813 c -16.56,3.75 -36.25,5.938 -53.44,5.938 -34.06,0 -40.31,-6.875 -40.31,-30.938 0,-28.75 0,-30 41.25,-40.312 55.31,-13.75 58.13,-21.875 58.13,-62.5 0,-36.25 -10.63,-56.875 -67.82,-56.875" /><path
           inkscape:connector-curvature="0"
           id="path4043"
           style="fill:#4dc6f4;fill-opacity:1;fill-rule:nonzero;stroke:none"
           d="m 2213.92,483.785 v 47.813 c 0,35 13.13,55.312 60.63,55.312 13.43,0 28.43,-2.187 36.25,-4.687 l -2.19,-21.875 c -11.88,2.5 -22.81,3.437 -33.44,3.437 -26.25,0 -35,-7.5 -35,-31.25 v -49.687 c 0,-23.75 8.75,-31.25 35,-31.25 10.63,0 21.56,0.937 33.44,3.437 l 2.5,-21.875 c -7.81,-2.5 -23.13,-4.687 -36.56,-4.687 -48.75,0 -60.63,20.312 -60.63,55.312" /><path
           inkscape:connector-curvature="0"
           id="path4045"
           style="fill:#4dc6f4;fill-opacity:1;fill-rule:nonzero;stroke:none"
           d="m 2354.2,431.598 v 152.187 h 26.25 V 431.598 Z m 0,176.562 v 37.813 h 26.25 V 608.16 h -26.25" /><path
           inkscape:connector-curvature="0"
           id="path4047"
           style="fill:#4dc6f4;fill-opacity:1;fill-rule:nonzero;stroke:none"
           d="m 2452,519.41 h 65.31 v 12.5 c 0,21.25 -7.19,33.125 -31.88,33.125 -24.68,0 -33.43,-11.875 -33.43,-33.125 z m 36.25,-68.437 c 15,0 31.56,2.812 48.12,7.187 l 3.44,-20.937 c -14.38,-5.313 -34.69,-8.75 -53.75,-8.75 -45,0 -60.31,21.562 -60.31,55.937 v 45.625 c 0,31.563 14.37,56.875 59.68,56.875 45,0 57.19,-25.937 57.19,-57.5 V 497.535 H 2452 v -12.812 c 0,-24.063 6.56,-33.75 36.25,-33.75" /><path
           inkscape:connector-curvature="0"
           id="path4049"
           style="fill:#4dc6f4;fill-opacity:1;fill-rule:nonzero;stroke:none"
           d="m 2678.84,431.598 v 116.25 c 0,10 -5,14.062 -14.68,14.062 -11.25,0 -34.69,-6.875 -50.94,-15.312 v -115 h -26.25 v 152.187 h 21.25 l 2.5,-13.125 c 16.87,8.125 43.12,16.25 61.25,16.25 24.37,0 33.12,-15.312 33.12,-38.75 V 431.598 h -26.25" /><path
           inkscape:connector-curvature="0"
           id="path4051"
           style="fill:#4dc6f4;fill-opacity:1;fill-rule:nonzero;stroke:none"
           d="m 2747.24,483.785 v 47.813 c 0,35 13.13,55.312 60.64,55.312 13.43,0 28.43,-2.187 36.25,-4.687 l -2.19,-21.875 c -11.88,2.5 -22.81,3.437 -33.44,3.437 -26.25,0 -35.01,-7.5 -35.01,-31.25 v -49.687 c 0,-23.75 8.76,-31.25 35.01,-31.25 10.63,0 21.56,0.937 33.44,3.437 l 2.5,-21.875 c -7.81,-2.5 -23.13,-4.687 -36.56,-4.687 -48.76,0 -60.64,20.312 -60.64,55.312" /><path
           inkscape:connector-curvature="0"
           id="path4053"
           style="fill:#4dc6f4;fill-opacity:1;fill-rule:nonzero;stroke:none"
           d="m 2905.96,519.41 h 65.31 v 12.5 c 0,21.25 -7.18,33.125 -31.87,33.125 -24.69,0 -33.44,-11.875 -33.44,-33.125 z m 36.25,-68.437 c 15,0 31.56,2.812 48.13,7.187 l 3.43,-20.937 c -14.37,-5.313 -34.68,-8.75 -53.75,-8.75 -45,0 -60.31,21.562 -60.31,55.937 v 45.625 c 0,31.563 14.38,56.875 59.69,56.875 45,0 57.19,-25.937 57.19,-57.5 v -31.875 h -90.63 v -12.812 c 0,-24.063 6.56,-33.75 36.25,-33.75" /><path
           inkscape:connector-curvature="0"
           id="path4055"
           style="fill:#4dc6f4;fill-opacity:1;fill-rule:nonzero;stroke:none"
           d="m 3083.11,428.473 c -15.62,0 -36.25,3.437 -48.44,8.125 l 3.44,20.625 c 13.13,-3.75 30.31,-6.25 43.44,-6.25 24.06,0 28.12,4.375 28.12,20.625 0,16.25 -1.25,18.125 -31.87,25.625 -37.81,9.375 -41.25,17.187 -41.25,48.75 0,28.125 12.5,40.937 52.5,40.937 14.69,0 30.62,-1.875 43.12,-5.312 l -1.87,-21.563 c -12.81,2.5 -29.69,4.375 -42.19,4.375 -22.5,0 -25.62,-5.312 -25.62,-19.062 0,-16.875 0.31,-20 25.93,-26.25 43.75,-10.938 47.19,-16.25 47.19,-46.563 0,-29.687 -9.06,-44.062 -52.5,-44.062" /><path
           inkscape:connector-curvature="0"
           id="path4057"
           style="fill:#1476c6;fill-opacity:1;fill-rule:nonzero;stroke:none"
           d="M 670.652,568.949 C 688.012,468.551 620.715,373.082 520.313,355.699 419.918,338.336 324.434,405.648 307.063,506.059 289.695,606.461 357.016,701.93 457.418,719.301 557.813,736.656 653.281,669.371 670.652,568.949" /><path
           inkscape:connector-curvature="0"
           id="path4059"
           style="fill:#4dc6f4;fill-opacity:1;fill-rule:nonzero;stroke:none"
           d="m 127.629,891.07 c 53.68,52.227 271.476,-95.468 449.144,-260.957 96.532,-89.914 179.387,-182.297 233.309,-260.097 39.82,-57.481 80.941,-132.141 50.598,-161.731 l -14.047,13.098 c 12.738,12.39 5.715,55.527 -52.317,139.277 C 741.195,437.328 659.34,528.551 563.824,617.504 356.113,810.973 174.641,910.055 141.676,877.984 l -14.047,13.086 v 0" /><path
           inkscape:connector-curvature="0"
           id="path4061"
           style="fill:#1476c6;fill-opacity:1;fill-rule:nonzero;stroke:none"
           d="M 959.48,693.266 C 974.355,622.465 735.395,512.895 503.008,445.719 376.742,409.242 255.703,385.445 162.23,378.695 93.168,373.734 9.11719,376.148 0.664063,416.215 l 18.375037,5.312 c 3.5351,-16.816 43.1836,-32.234 143.7929,-24.988 92.113,6.629 211.648,30.176 336.582,66.289 271.68,78.496 450.836,181.668 441.695,225.137 l 18.371,5.301 v 0" /><path
           inkscape:connector-curvature="0"
           id="path4063"
           style="fill:#fab20b;fill-opacity:1;fill-rule:nonzero;stroke:none"
           d="m 271.121,91.6719 c -3.851,0.6679 -7.461,2 -10.824,4.0195 l 8.848,16.9806 c 38.785,-23.2931 173.058,125.801 304,376.98 130.972,251.211 179.144,452.246 140.472,475.578 l 8.863,16.993 C 785.453,944.234 700.367,695.367 588.34,480.492 482.305,277.074 339.496,79.9297 271.121,91.6719 v 0" /></g></g></g></svg>